# xmcd
#
# Track frame offsets:
#	150
#	13998
#	28075
#	41968
#	58929
#	72375
#	86855
#	101465
#	115451
#	133515
#	149341
#
# Disc length: 2161 seconds
#
# Revision: 1
# Processed by: cddbd v1.5.2PL0 Copyright (c) Steve Scherf et al.
# Submitted via: audiograbber 1.83.01
#
DISCID=aa086f0b
DTITLE=Terri Clark - Just the same
DYEAR=1996
DGENRE=Country
TTITLE0=Emotional girl
TTITLE1=Poor, poor pitiful me
TTITLE2=Juist the same
TTITLE3=Something in the water
TTITLE4=Neon flame
TTITLE5=Any woman
TTITLE6=Twang thang
TTITLE7=You do or you don't
TTITLE8=Keeper of the flame
TTITLE9=Not what I wanted to hear
TTITLE10=Hold your horses
EXTD=
EXTT0=
EXTT1=
EXTT2=
EXTT3=
EXTT4=
EXTT5=
EXTT6=
EXTT7=
EXTT8=
EXTT9=
EXTT10=
PLAYORDER=
